<svg width="323" height="204" viewBox="0 0 323 204" fill="none" xmlns="http://www.w3.org/2000/svg">
<path fill-rule="evenodd" clip-rule="evenodd" d="M198.105 112.734C192.772 161.253 151.71 198.997 101.846 198.997C48.3594 198.997 5 155.569 5 101.999C5 48.4277 48.3594 5 101.846 5C127.403 5 150.649 14.9155 167.956 31.1152L138.641 31.1152V39.2604C127.85 32.8976 115.273 29.248 101.845 29.248C61.7305 29.248 29.2109 61.8188 29.2109 101.997C29.2109 142.175 61.7305 174.746 101.845 174.746C138.318 174.746 168.512 147.821 173.694 112.734H198.105Z" fill="white"/>
<path d="M198.105 112.734L203.075 113.28L203.685 107.734H198.105V112.734ZM167.956 31.1152V36.1152H180.615L171.373 27.4648L167.956 31.1152ZM138.641 31.1152V26.1152H133.641V31.1152H138.641ZM138.641 39.2604L136.102 43.5675L143.641 48.0131V39.2604H138.641ZM173.694 112.734V107.734H169.378L168.748 112.003L173.694 112.734ZM101.846 203.997C154.294 203.997 197.467 164.3 203.075 113.28L193.135 112.187C188.077 158.206 149.125 193.997 101.846 193.997V203.997ZM5.96046e-07 101.999C5.96046e-07 158.323 45.5905 203.997 101.846 203.997V193.997C51.1282 193.997 10 152.815 10 101.999H5.96046e-07ZM101.846 5.96046e-07C45.5905 5.96046e-07 5.96046e-07 45.6737 5.96046e-07 101.999H10C10 51.1817 51.1282 10 101.846 10V5.96046e-07ZM171.373 27.4648C153.177 10.4331 128.723 5.96046e-07 101.846 5.96046e-07V10C126.084 10 148.121 19.3979 164.539 34.7657L171.373 27.4648ZM138.641 36.1152H167.956V26.1152L138.641 26.1152V36.1152ZM143.641 39.2604V31.1152L133.641 31.1152V39.2604H143.641ZM141.181 34.9534C129.642 28.1495 116.191 24.248 101.845 24.248V34.248C114.356 34.248 126.059 37.6457 136.102 43.5675L141.181 34.9534ZM101.845 24.248C58.9616 24.248 24.2109 59.0649 24.2109 101.997H34.2109C34.2109 64.5728 64.4993 34.248 101.845 34.248V24.248ZM24.2109 101.997C24.2109 144.929 58.9616 179.746 101.845 179.746V169.746C64.4993 169.746 34.2109 139.421 34.2109 101.997H24.2109ZM101.845 179.746C140.84 179.746 173.102 150.962 178.641 113.464L168.748 112.003C163.922 144.68 135.797 169.746 101.845 169.746V179.746ZM198.105 107.734H173.694V117.734H198.105V107.734Z" fill="white"/>
<path fill-rule="evenodd" clip-rule="evenodd" d="M167.979 183.217C183.201 193.196 201.398 198.998 220.949 198.998C274.436 198.998 317.795 155.57 317.795 101.999C317.795 48.4287 274.436 5.00091 220.949 5.00091C167.463 5.00091 124.103 48.4287 124.103 101.999C124.103 102.313 124.105 102.627 124.108 102.94H148.321C148.317 102.628 148.315 102.315 148.315 102.001C148.315 61.823 180.835 29.2522 220.95 29.2522C261.064 29.2522 293.584 61.823 293.584 102.001C293.584 142.179 261.064 174.75 220.95 174.75C200.06 174.75 181.23 165.918 167.979 151.778V183.217Z" fill="white"/>
<path d="M167.979 183.217H162.979V185.917L165.238 187.398L167.979 183.217ZM124.108 102.94L119.108 102.988L119.155 107.94H124.108V102.94ZM148.321 102.94V107.94L153.385 107.94L153.321 102.877L148.321 102.94ZM167.979 151.778L171.628 148.359L162.979 139.13V151.778H167.979ZM165.238 187.398C181.249 197.895 200.395 203.998 220.949 203.998V193.998C202.402 193.998 185.153 188.497 170.721 179.035L165.238 187.398ZM220.949 203.998C277.204 203.998 322.795 158.324 322.795 101.999H312.795C312.795 152.816 271.667 193.998 220.949 193.998V203.998ZM322.795 101.999C322.795 45.6747 277.204 0.000908732 220.949 0.000908732V10.0009C271.667 10.0009 312.795 51.1827 312.795 101.999H322.795ZM220.949 0.000908732C164.694 0.000908732 119.103 45.6747 119.103 101.999H129.103C129.103 51.1827 170.231 10.0009 220.949 10.0009V0.000908732ZM119.103 101.999C119.103 102.329 119.105 102.659 119.108 102.988L129.107 102.893C129.105 102.595 129.103 102.298 129.103 101.999H119.103ZM124.108 107.94H148.321V97.9402H124.108V107.94ZM143.315 102.001C143.315 102.336 143.317 102.67 143.322 103.003L153.321 102.877C153.317 102.585 153.315 102.293 153.315 102.001L143.315 102.001ZM220.95 24.2522C178.066 24.2522 143.315 59.069 143.315 102.001L153.315 102.001C153.315 64.577 183.604 34.2522 220.95 34.2522L220.95 24.2522ZM298.584 102.001C298.584 59.069 263.833 24.2522 220.95 24.2522L220.95 34.2522C258.296 34.2522 288.584 64.577 288.584 102.001H298.584ZM220.95 179.75C263.833 179.75 298.584 144.933 298.584 102.001H288.584C288.584 139.425 258.296 169.75 220.95 169.75V179.75ZM164.331 155.197C178.486 170.302 198.62 179.75 220.95 179.75V169.75C201.5 169.75 183.973 161.533 171.628 148.359L164.331 155.197ZM162.979 151.778V183.217H172.979V151.778H162.979Z" fill="white"/>
</svg>
